<?xml version="1.0" encoding="utf-8"?>
<!-- Generator: Adobe Illustrator 25.0.1, SVG Export Plug-In . SVG Version: 6.00 Build 0)  -->
<svg version="1.1" id="Layer_1" xmlns="http://www.w3.org/2000/svg" xmlns:xlink="http://www.w3.org/1999/xlink" x="0px" y="0px"
	 viewBox="0 0 149.4 94.1" style="enable-background:new 0 0 149.4 94.1;" xml:space="preserve">
<style type="text/css">
	.st0{fill:#8ACDB8;}
</style>
<path class="st0" d="M97.6,30H57.3L64,16.9c0.9-1.8,2-3.5,3.2-5C73.3,4.2,82.6-0.2,92.3,0h0.1c11.3,0,19.2,0,23.7,0h4.7v5h-4.7
	c-4.6,0-12.4,0-23.7,0h-0.1c-11.1,0-17.7,5.4-21.3,10c-1,1.2-1.9,2.6-2.6,4v0.1l-3,5.9h29l2.1-4.5l4.4,2.2L97.6,30z"/>
<path class="st0" d="M101.2,22.3l-4.5-2.1l1.5-3.2c0.2-0.5,0.5-1.1,0.8-1.8l0.3-0.7l4.6,2l-0.3,0.7c-0.3,0.7-0.6,1.4-0.9,1.9
	L101.2,22.3z"/>
<path class="st0" d="M104.1,15.9l-4.6-2c0.2-0.4,0.4-0.9,0.6-1.3l4.5,2.2C104.4,15.2,104.2,15.6,104.1,15.9z"/>
<path class="st0" d="M94.8,24.1l3.8-8.1H69.1v-5h31.8c2-3.8,6.8-10.7,18.1-10.9c0.3,0,0.7,0,1,0c15.7,0.4,19.9,20.1,20.1,21l0.6,3
	L94.8,24.1z M105.1,13.7l-1.3,2.8l-1.1,2.5l31.7,0c-1.6-4.9-5.9-13.8-14.5-14h-0.7C110.9,5.2,107.3,9.6,105.1,13.7z"/>
<path class="st0" d="M53.7,94.1h-0.9c-11.9-0.3-20-0.2-24.4-0.1c-1.2,0.1-2.4,0.2-3.5,0.1h-0.3l0,0C9.4,93.2,5.2,74,5.1,73.2l-0.6-3
	l40.4-0.1l2.8-6H88l-6.9,13.5l-0.2,0.4C73.2,91.2,62.1,94.1,53.7,94.1z M40,88.9c3.6,0,7.9,0.1,12.8,0.2c6.9,0.2,12.7-1.8,17.5-5.9
	h-26C43.2,85.3,41.7,87.2,40,88.9z M10.9,75.2c1.6,4.7,5.7,13.4,14,13.9c0.6,0,1.7-0.1,3.2-0.1c7.2-0.8,10.3-5,12.3-9.1l1-2.2
	c0.1-0.2,0.2-0.5,0.3-0.7c0.3-0.7,0.6-1.3,0.8-1.9L10.9,75.2z M46.7,78.2h28.2c0.6-0.9,1.2-1.8,1.7-2.7l0.3-0.6l2.9-5.8h-29
	l-2.2,4.7L46.7,78.2z"/>
<path class="st0" d="M12.1,38.8l-1.8,3.5c-0.4-0.3-0.9-0.6-1.4-0.8c-0.5-0.2-1.1-0.3-1.6-0.3H7.1c-0.1,0-0.2,0-0.3,0.1
	c-0.4,0.1-0.7,0.2-1,0.5c-0.5,0.4-0.6,1.2-0.1,1.7c0,0,0.1,0.1,0.1,0.1c0.3,0.2,0.6,0.4,0.9,0.5L7,44.1l0.3,0.1l1.1,0.3
	c1.1,0.3,2.1,0.9,3,1.6c0.9,0.8,1.3,2,1.2,3.2v0.4c0,0.8-0.1,1.6-0.4,2.3c-0.3,0.8-0.7,1.5-1.4,2c-0.6,0.5-1.3,0.9-2,1.1
	c-0.7,0.2-1.5,0.4-2.2,0.5H6.4H6.1c-1.1,0-2.2-0.2-3.2-0.5c-1-0.3-2-0.8-2.9-1.4L1.9,50c0.6,0.5,1.2,0.9,1.9,1.3
	c0.7,0.4,1.4,0.5,2.2,0.5h0.2c0.5,0,1-0.2,1.4-0.5C7.9,51,8.2,50.5,8.1,50c0-0.4-0.2-0.8-0.5-1c-0.4-0.3-0.8-0.5-1.2-0.6l-0.6-0.2
	l-0.5-0.2H5.3H5.2c-1.2-0.3-2.3-0.8-3.3-1.5c-0.8-0.7-1.2-1.8-1.2-3.4c-0.1-1.6,0.5-3.1,1.7-4.2c1.2-1.1,2.7-1.6,4.3-1.6
	c0.4,0,0.7,0,1.1,0.1c0.4,0,0.7,0.1,1.1,0.2c0.6,0.1,1.2,0.3,1.7,0.5C11.1,38.3,11.6,38.5,12.1,38.8L12.1,38.8z"/>
<path class="st0" d="M31.4,55.1h-4.5V41.6h-3.7v-3.8h12v3.8h-3.8V55.1z"/>
<path class="st0" d="M50.7,41.6v2.9h5.1v3.8h-5.1v3h5.3v3.8h-9.8V37.8h9.8v3.8H50.7z"/>
<path class="st0" d="M72.9,41.6v2.9H78v3.8h-5.1v3h5.4v3.8h-9.9V37.8h9.9v3.8H72.9z"/>
<path class="st0" d="M90.5,37.8h6.9c1.6-0.1,3.2,0.4,4.6,1.4c1.2,1.1,1.9,2.7,1.8,4.3c0.1,1.7-0.4,3.3-1.6,4.5
	c-1.3,1-2.9,1.5-4.5,1.4H95v5.7h-4.5V37.8z M95,45.7h0.8c0.8,0,1.5-0.1,2.2-0.2c0.7-0.2,1-0.8,1-1.8s-0.3-1.7-1-1.9
	c-0.7-0.2-1.5-0.3-2.3-0.3H95V45.7z"/>
<path class="st0" d="M119.7,51.3h5.4v3.8h-9.9V37.8h4.5V51.3z"/>
<path class="st0" d="M132.1,37.8h5.4l3.2,4.7l3.3-4.7h5.4l-6.4,9v8.3h-4.5v-8.3L132.1,37.8z"/>
</svg>
