<svg id="Layer_1" data-name="Layer 1" xmlns="http://www.w3.org/2000/svg" viewBox="0 0 162.55 89.87"><defs><style>.cls-1{fill:#fff;}</style></defs><path class="cls-1" d="M104.77,31.12H62.93l6.89-13.58a30.59,30.59,0,0,1,3.32-5.19A32.71,32.71,0,0,1,99.47,0c11.79,0,20,0,24.77,0h4.92V5h-4.92c-4.75,0-13,0-24.78,0h-.08C87.77,5,80.84,10.68,77.06,15.45a24.94,24.94,0,0,0-2.72,4.25l-3.26,6.42h30.5l4-8.46c.26-.54.51-1.14.79-1.8l.33-.76,4.59,2-.32.75c-.31.73-.6,1.4-.87,2Z"/><path class="cls-1" d="M102.2,24.9l3.86-8.5H75.11v-5H108.4c2.06-3.88,7-11.17,18.88-11.38a6.49,6.49,0,0,1,1.08,0C144.64.46,149,20.91,149.2,21.78l.62,3Zm8.85-7.38L110,19.88l33.47-.09c-1.69-5-6.12-14.55-15.26-14.78h-.77c-9.26.15-13,5.39-15.2,10l-.91,2-.14.44Z"/><path class="cls-1" d="M59.25,89.87l-1,0c-12.43-.32-20.91-.24-25.49-.13a26.34,26.34,0,0,1-3.69.11l-.33,0v0c-15.72-1-20-20.88-20.17-21.75l-.62-3L50.12,65,53,58.73H94.87L87.76,72.66l-.22.39C79.61,86.83,68,89.87,59.25,89.87ZM44.72,84.63q5.78,0,13.68.22a26.36,26.36,0,0,0,18.47-6.4H49.39A23.64,23.64,0,0,1,44.72,84.63ZM14.36,70.06C16,75,20.32,84.28,29.14,84.83c.64,0,1.76-.07,3.37-.11,7.55-.82,10.86-5.28,13-9.58l1.05-2.31.32-.75c.32-.75.61-1.44.89-2l0-.09Zm37.38,3.39H81.35c.64-.9,1.26-1.86,1.86-2.9.14-.25.27-.46.37-.61l3.15-6.21H56.22l-2.34,5Z"/><path class="cls-1" d="M0,51.85,2,47A12.87,12.87,0,0,0,4.33,48.4a5.22,5.22,0,0,0,1.94.43,1.83,1.83,0,0,0,1-.24.75.75,0,0,0,.36-.65c0-.48-.61-.84-1.82-1.09l-.91-.2A5.45,5.45,0,0,1,2,45a4.41,4.41,0,0,1-1-3,5.68,5.68,0,0,1,2-4.5,7.58,7.58,0,0,1,5.19-1.74,11.09,11.09,0,0,1,2.91.39,13.84,13.84,0,0,1,2.88,1.17L12,41.82a7.61,7.61,0,0,0-1.78-1,4.86,4.86,0,0,0-1.74-.35,1.85,1.85,0,0,0-1,.22.67.67,0,0,0-.35.6c0,.49.85.91,2.56,1.28l.64.14a4.86,4.86,0,0,1,2.79,1.63,4.5,4.5,0,0,1,1,3A5.93,5.93,0,0,1,12.1,52a7.84,7.84,0,0,1-5.35,1.8,12.2,12.2,0,0,1-3.37-.48A15.13,15.13,0,0,1,0,51.85Z"/><path class="cls-1" d="M28.37,53.31V41.77H24.94V36.16H38v5.61H34.53V53.31Z"/><path class="cls-1" d="M49.9,53.31V36.16H61.37v4.65H55.94v1.65h4.92v4.4H55.94v1.8h5.57v4.65Z"/><path class="cls-1" d="M73.94,53.31V36.16H85.41v4.65H80v1.65h4.92v4.4H80v1.8h5.56v4.65Z"/><path class="cls-1" d="M98,53.31V36.16h7.37q3.89,0,5.69,1.5c1.2,1,1.8,2.58,1.8,4.76a5.55,5.55,0,0,1-1.62,4.43c-1.08.94-2.79,1.4-5.13,1.4h-1.94v5.06Zm6.2-12.38v2.86h1a2.16,2.16,0,0,0,1.34-.37,1.25,1.25,0,0,0,.47-1.05,1.28,1.28,0,0,0-.48-1.06,2.1,2.1,0,0,0-1.33-.38Z"/><path class="cls-1" d="M124.91,53.31V36.16h6.18V47.75h6v5.56Z"/><path class="cls-1" d="M150.39,53.31V45.73l-5.74-9.57h7l1.44,3.33a12.05,12.05,0,0,1,.47,1.3l0,.11q.13-.4.45-1.2c0-.1.07-.16.08-.2l1.42-3.34h7l-6,9.57v7.58Z"/></svg>